inDegrees=no
num_controls=7
num_derivatives=13
num_iterations=119
num_multipliers=7
num_parameters=0
num_slacks=7
num_states=26
objective=0.444749
objective_accelerations=0.058683
objective_balance=0.003466
objective_effort=0.023297
objective_height=0.353837
objective_ligament=0.005465
solver_duration=1755.851824
status=Solve_Succeeded
success=true
DataType=double
version=3
OpenSimVersion=4.5
endheader
time	/jointset/ground_pelvis/pelvis_tilt/value	/jointset/ground_pelvis/pelvis_tx/value	/jointset/ground_pelvis/pelvis_ty/value	/jointset/hip_l/hip_flexion_l/value	/jointset/hip_l/hip_adduction_l/value	/jointset/hip_l/hip_rotation_l/value	/jointset/back/lumbar_extension/value	/jointset/patellofemoral_l/patellar_flexion_l/value	/jointset/knee_l/knee_flexion_l/value	/jointset/knee_l/knee_adduction_l/value	/jointset/knee_l/knee_rotation_l/value	/jointset/ankle_l/ankle_angle_l/value	/jointset/subtalar_l/subtalar_angle_l/value	/jointset/ground_pelvis/pelvis_tilt/speed	/jointset/ground_pelvis/pelvis_tx/speed	/jointset/ground_pelvis/pelvis_ty/speed	/jointset/hip_l/hip_flexion_l/speed	/jointset/hip_l/hip_adduction_l/speed	/jointset/hip_l/hip_rotation_l/speed	/jointset/back/lumbar_extension/speed	/jointset/patellofemoral_l/patellar_flexion_l/speed	/jointset/knee_l/knee_flexion_l/speed	/jointset/knee_l/knee_adduction_l/speed	/jointset/knee_l/knee_rotation_l/speed	/jointset/ankle_l/ankle_angle_l/speed	/jointset/subtalar_l/subtalar_angle_l/speed	/forceset/tau_hip_flexion_l	/forceset/tau_hip_adduction_l	/forceset/tau_hip_rotation_l	/forceset/tau_knee_flexion_l	/forceset/tau_ankle_angle_l	/forceset/tau_subtalar_angle_l	/forceset/tau_lumbar_extension	lambda_cid13_p0	lambda_cid13_p1	lambda_cid13_p2	lambda_cid13_p3	lambda_cid13_p4	lambda_cid13_p5	lambda_cid14_p0	/jointset/ground_pelvis/pelvis_tilt/accel	/jointset/ground_pelvis/pelvis_tx/accel	/jointset/ground_pelvis/pelvis_ty/accel	/jointset/hip_l/hip_flexion_l/accel	/jointset/hip_l/hip_adduction_l/accel	/jointset/hip_l/hip_rotation_l/accel	/jointset/back/lumbar_extension/accel	/jointset/patellofemoral_l/patellar_flexion_l/accel	/jointset/knee_l/knee_flexion_l/accel	/jointset/knee_l/knee_adduction_l/accel	/jointset/knee_l/knee_rotation_l/accel	/jointset/ankle_l/ankle_angle_l/accel	/jointset/subtalar_l/subtalar_angle_l/accel	gamma_cid13_p0	gamma_cid13_p1	gamma_cid13_p2	gamma_cid13_p3	gamma_cid13_p4	gamma_cid13_p5	gamma_cid14_p0
1	-0.548582968294818	-0.07829196627637888	0.5656474284962993	1.856451241468158	-0.4667355070581169	0.01674916818710324	-0.2617934032556334	1.415368465116612	1.415368465116598	-0.06941501592285076	-0.174529064256595	0.2336898462324194	-0.001201287112186668	-0.01654936110954893	0.01111508322707362	0.00319612250544072	-0.00454580434506693	-0.002213332320242759	0.0001314647541623341	-2.540881396574284e-05	0.0006413444372942003	0.0006413444372941996	-0.00198981699366613	-6.666913450011907e-05	0.02170372336447528	0.01013535416907151	-0.3355503161889595	0.01324537903300913	0.0006741430611766397	-0.3087698719082241	0.02993924574309183	0.02959416064456395	0.286192410171402	-30.37133809230652	-7.997123613539365	1.466964729286911	8.722406344289263	-644.9737963074284	-48.17141014505607	-0.8345111540534181	1.51347332568282	0.2126475376258307	2.01855218335352	-6.912574769180243	-0.08101119493947792	-2.309628145807394	-0.02478520084771462	-5.403034492725094	-5.40303449272509	-0.685217911500148	-0.02215351844791806	-0.6955224750409271	-0.4858943798653931	4.521300885213564e-09	1.935652801169365e-08	-1.252363654015548e-08	2.29024731936952e-09	-1.463147709288276e-09	2.983386305789141e-08	1.53025713939539e-09
1.01	-0.5486737579589851	-0.07817023272266813	0.5657801569622667	1.856061491099988	-0.4667607595369097	0.01663392946289273	-0.2617938202620396	1.415104861746378	1.41510486174634	-0.0694666490719935	-0.1745296118355497	0.2338722387185837	-0.001122923090287346	-0.001612239262752161	0.01323441070843693	0.02334424290578967	-0.07338973774298513	-0.00284322817268091	-0.02318206965173146	-5.050906905338377e-05	-0.05335828930047474	-0.05335828930047438	-0.008344257161183722	-6.042878944889713e-05	0.01476501928379775	0.00552336026731052	-0.335449392754299	0.01333919154484155	0.0006577567825403358	-0.3085954728860332	0.02977314244174683	0.0296150315842046	0.2861221109741741	-30.41010550616543	-8.003451516301633	1.472601371859305	8.656878993782339	-644.8115905497114	-48.18007005718935	-0.838524423335919	1.483279874460515	0.211992947531418	2.012140278214181	-6.868124738439466	-0.05488818448023525	-2.342652307323407	0.009750071892326162	-5.397865932144051	-5.397865932144037	-0.6116788594177794	0.009383174104465573	-0.6945077578065518	-0.4509688707331423	-5.846141831868086e-09	4.098040011528589e-09	2.448707355956252e-08	5.928236858933735e-10	-1.250260174163131e-08	8.327945692763364e-08	-1.23825848456841e-08
1.02	-0.5486152867526276	-0.07802722237531579	0.5661142062942054	1.85498373697517	-0.4667924928550437	0.01628546815075465	-0.2617942637690503	1.414301374415198	1.414301374415135	-0.06958205098081949	-0.1745306229384294	0.2339849514872961	-0.001091102402485971	0.01330281299534108	0.01537044195539371	0.04346029569968313	-0.142146555674578	-0.003509500188489141	-0.04651305283134679	-3.070893487638901e-05	-0.1073354477518951	-0.1073354477518951	-0.01474356893030993	-0.0001593739194847468	0.007767779874104733	0.0008266873494818816	-0.3353484693196385	0.01343300405667397	0.0006413705039041609	-0.3084210738638423	0.02960703914040184	0.02963590252384524	0.2860518117769463	-30.45476290495654	-8.008560337966431	1.477829241007647	8.61523930738341	-644.731979928432	-48.16702818796725	-0.8506430669410233	1.509059407942115	0.2159882907445244	2.012138662062425	-6.895151675915174	-0.08828642761349392	-2.313117900551703	-0.01580512299478753	-5.398539435455474	-5.398539435455509	-0.6941922318218723	-0.04319061346533241	-0.7072295408440257	-0.5028301830789231	-1.102581883124647e-08	1.953742040896429e-09	6.4963420753467e-08	2.434429319045477e-09	-2.061790026318797e-08	1.293150879782241e-07	-2.17932592879943e-08
1.03	-0.5484076647776051	-0.07786274203527173	0.5666491889266689	1.853218964958992	-0.4668306549285309	0.01570404215230418	-0.2617944004107391	1.412958324409613	1.412958324409581	-0.06976144995469827	-0.174532450414692	0.2340274106316145	-0.001106123565569061	0.02822818225971219	0.01753092529117465	0.06352421437388603	-0.2107810578879921	-0.004086312551662185	-0.06973135165068824	1.113286703042671e-07	-0.1612613894474141	-0.1612613894474142	-0.02112022714148502	-0.0001516882972671096	0.0007157200378307653	-0.003788660323911778	-0.3349440861465494	0.01363150169519206	0.0006001951374568675	-0.3081113766341165	0.02953459455478862	0.02971906797157022	0.2857664627857105	-30.44879035835033	-8.057703691790248	1.499346706315896	8.496249150582878	-644.35007853567	-48.21716438785604	-0.8710882307998378	1.485262328795757	0.2168741144679199	2.001710217557918	-6.843584995362296	-0.03689777829204597	-2.320085508958672	0.0120352107631096	-5.387640660568535	-5.38764066056854	-0.6070142762232414	0.03094025619171481	-0.7054429228450319	-0.4345606057736532	-1.615255944575031e-08	-5.673766412817954e-11	1.054751315911897e-07	4.312147495734624e-09	-2.870336046320598e-08	1.75275107163313e-07	-3.115799324517417e-08
